<svg width="19" height="23" viewBox="0 0 19 23" fill="none" xmlns="http://www.w3.org/2000/svg">
<path d="M9.04167 16.7313C7.55625 16.7313 6.16383 16.9496 4.86442 17.3862C3.56414 17.8237 2.37322 18.4383 1.29167 19.23V21.25H16.7917V19.23C15.6938 18.4383 14.499 17.8237 13.2073 17.3862C11.9156 16.9488 10.5271 16.7304 9.04167 16.7313ZM0 22.5V0H18.0833V22.5H0ZM9.04167 13.8462C10.1249 13.8462 11.0416 13.4833 11.7916 12.7575C12.5417 12.0317 12.9167 11.1446 12.9167 10.0962C12.9167 9.04792 12.5417 8.16083 11.7916 7.435C11.0416 6.70917 10.1249 6.34625 9.04167 6.34625C7.95839 6.34625 7.04174 6.70917 6.29171 7.435C5.54168 8.16083 5.16667 9.04792 5.16667 10.0962C5.16667 11.1446 5.54168 12.0317 6.29171 12.7575C7.04174 13.4833 7.95839 13.8462 9.04167 13.8462Z" fill="currentColor"/>
</svg>
