<svg width="25" height="27" viewBox="0 0 25 27" fill="none" xmlns="http://www.w3.org/2000/svg">
<path d="M10.8594 21.9936L6.39375 17.7607L7.51875 16.6944L10.8594 19.8624L17.4828 13.5842L18.6062 14.6505L10.8594 21.9936ZM2.525 26.9995C1.80521 26.9995 1.20469 26.7714 0.723437 26.3153C0.242187 25.8591 0.00104167 25.2899 0 24.6076V5.69463C0 5.01335 0.241146 4.44463 0.723437 3.98847C1.20573 3.5323 1.80625 3.30373 2.525 3.30274H5.28906V0H6.97187V3.30274H18.15V0H19.7125V3.30274H22.4766C23.1953 3.30274 23.7958 3.53132 24.2781 3.98847C24.7604 4.44562 25.001 5.01483 25 5.69612V24.6076C25 25.2889 24.7594 25.8581 24.2781 26.3153C23.7969 26.7724 23.1958 27.0005 22.475 26.9995H2.525ZM2.525 25.5185H22.4766C22.7161 25.5185 22.9365 25.4237 23.1375 25.2341C23.3385 25.0445 23.4385 24.8352 23.4375 24.6062V11.6203H1.5625V24.6076C1.5625 24.8347 1.6625 25.0436 1.8625 25.2341C2.0625 25.4247 2.28281 25.5195 2.52344 25.5185" fill="#868686"/>
</svg>
