<svg width="25" height="20" viewBox="0 0 25 20" fill="none" xmlns="http://www.w3.org/2000/svg">
<path d="M17.886 19.25C17.5597 19.25 17.2911 19.1437 17.0803 18.931C16.8694 18.7174 16.764 18.4534 16.764 18.139V12.386C16.764 12.0597 16.8703 11.7911 17.083 11.5802C17.2966 11.3694 17.5606 11.264 17.875 11.264H23.6294C23.9557 11.264 24.2238 11.3708 24.4338 11.5844C24.6437 11.798 24.7491 12.0615 24.75 12.375V18.1294C24.75 18.4557 24.6437 18.7238 24.431 18.9338C24.2183 19.1437 23.9543 19.2491 23.639 19.25H17.886ZM12.375 7.986C12.0606 7.986 11.797 7.87967 11.5844 7.667C11.3717 7.45433 11.2649 7.19033 11.264 6.875V1.12063C11.264 0.795208 11.3708 0.527083 11.5844 0.31625C11.798 0.105417 12.0615 0 12.375 0H23.639C23.9543 0 24.2183 0.106333 24.431 0.319C24.6437 0.531667 24.75 0.795667 24.75 1.111V6.86538C24.75 7.19079 24.6437 7.45892 24.431 7.66975C24.2174 7.88058 23.9534 7.986 23.639 7.986H12.375ZM1.11101 19.25C0.796589 19.25 0.532589 19.1437 0.319006 18.931C0.105423 18.7183 -0.000910791 18.4543 5.87606e-06 18.139V12.386C5.87606e-06 12.0597 0.106339 11.7911 0.319006 11.5802C0.531673 11.3694 0.795673 11.264 1.11101 11.264H12.375C12.6894 11.264 12.9534 11.3703 13.167 11.583C13.3806 11.7957 13.4869 12.0597 13.486 12.375V18.1294C13.486 18.4557 13.3797 18.7238 13.167 18.9338C12.9543 19.1437 12.6903 19.2491 12.375 19.25H1.11101ZM1.12063 7.986C0.795214 7.986 0.527089 7.87967 0.316256 7.667C0.105423 7.45433 5.87606e-06 7.19033 5.87606e-06 6.875V1.12063C5.87606e-06 0.795208 0.106339 0.527083 0.319006 0.31625C0.531673 0.105417 0.795673 0 1.11101 0H6.86538C7.1908 0 7.45892 0.106333 7.66976 0.319C7.88059 0.531667 7.98601 0.795667 7.98601 1.111V6.86538C7.98601 7.19079 7.87967 7.45892 7.66701 7.66975C7.45342 7.88058 7.18942 7.986 6.87501 7.986H1.12063Z" 
fill="currentColor"/>
</svg>
