<svg width="20" height="26" viewBox="0 0 20 26" fill="none" xmlns="http://www.w3.org/2000/svg">
<path d="M0 21.6784V20.3037H2.28933V9.40954C2.28933 7.61332 2.87489 6.03383 4.046 4.67109C5.21711 3.30835 6.70178 2.45972 8.5 2.12522V1.37466C8.5 0.992504 8.63742 0.668084 8.91225 0.4014C9.18708 0.1338 9.52095 0 9.91383 0C10.3067 0 10.6415 0.1338 10.9183 0.4014C11.195 0.669001 11.3333 0.99342 11.3333 1.37466V2.12522C13.1316 2.45972 14.6162 3.3088 15.7873 4.67247C16.9584 6.03613 17.544 7.61561 17.544 9.41091V20.3023H19.8333V21.677L0 21.6784ZM9.91242 25.2731C9.28153 25.2731 8.7432 25.0554 8.29742 24.6201C7.85164 24.1848 7.62875 23.6625 7.62875 23.053H12.2046C12.2046 23.667 11.9803 24.1903 11.5317 24.6229C11.0821 25.0554 10.5424 25.2731 9.91242 25.2731ZM3.706 20.3037H16.1288V9.41091C16.1288 7.74024 15.5238 6.31793 14.314 5.14397C13.1042 3.97001 11.6384 3.38349 9.91667 3.38441C8.19495 3.38533 6.72917 3.97185 5.51933 5.14397C4.3095 6.3161 3.70506 7.73841 3.706 9.41091V20.3037Z" fill="currentColor"/>
</svg>
