<svg width="26" height="26" viewBox="0 0 26 26" fill="none" xmlns="http://www.w3.org/2000/svg">
<path d="M13.0043 26C11.2074 26 9.51744 25.6591 7.93433 24.9773C6.35219 24.2946 4.97563 23.3682 3.80467 22.1982C2.6337 21.0282 1.70685 19.6531 1.02411 18.0729C0.34137 16.4927 0 14.8031 0 13.0043C0 11.2055 0.34137 9.51552 1.02411 7.93433C1.70589 6.35218 2.63081 4.97563 3.79889 3.80467C4.96696 2.6337 6.34256 1.70685 7.92567 1.02411C9.50878 0.34137 11.1988 0 12.9957 0C14.7926 0 16.4826 0.34137 18.0657 1.02411C19.6478 1.70589 21.0244 2.6313 22.1953 3.80033C23.3663 4.96937 24.2931 6.34496 24.9759 7.92711C25.6586 9.50926 26 11.1988 26 12.9957C26 14.7926 25.6591 16.4826 24.9773 18.0657C24.2956 19.6488 23.3692 21.0253 22.1982 22.1953C21.0273 23.3653 19.6521 24.2922 18.0729 24.9759C16.4936 25.6596 14.8041 26.001 13.0043 26ZM9.38889 14.4444C10.6003 14.4444 11.6254 14.0251 12.4641 13.1863C13.3029 12.3476 13.7222 11.3225 13.7222 10.1111C13.7222 8.8997 13.3029 7.87463 12.4641 7.03589C11.6254 6.19715 10.6003 5.77778 9.38889 5.77778C8.17748 5.77778 7.15241 6.19715 6.31367 7.03589C5.47493 7.87463 5.05556 8.8997 5.05556 10.1111C5.05556 11.3225 5.47493 12.3476 6.31367 13.1863C7.15241 14.0251 8.17748 14.4444 9.38889 14.4444ZM19.5 16.445C20.4649 16.445 21.28 16.1118 21.9454 15.4454C22.6109 14.7791 22.9436 13.9639 22.9436 13C22.9436 12.0361 22.6109 11.2209 21.9454 10.5546C21.28 9.88818 20.4649 9.55548 19.5 9.55644C18.5351 9.55741 17.72 9.89011 17.0546 10.5546C16.3891 11.219 16.0564 12.0341 16.0564 13C16.0564 13.9658 16.3891 14.781 17.0546 15.4454C17.72 16.1099 18.5351 16.4431 19.5 16.445ZM13 24.5556C14.898 24.5556 16.6434 24.1391 18.2361 23.3061C19.8289 22.4722 21.1611 21.3441 22.2329 19.9218C21.7832 19.7966 21.3306 19.695 20.8751 19.617C20.4196 19.539 19.9613 19.5 19.5 19.5C18.0199 19.5 16.5023 19.9194 14.9471 20.7581C13.3919 21.5969 12.1651 22.8155 11.2667 24.414C11.5652 24.4737 11.8541 24.5122 12.1333 24.5296C12.4126 24.5469 12.7015 24.5556 13 24.5556ZM8.08022 23.4491C8.64548 22.309 9.27863 21.3638 9.97967 20.6137C10.6807 19.8635 11.4559 19.1591 12.3052 18.5004C11.8854 18.3753 11.3803 18.2703 10.79 18.1856C10.2007 18.0989 9.65033 18.0556 9.139 18.0556C8.11152 18.0556 7.13748 18.1836 6.21689 18.4398C5.2963 18.695 4.39833 19.0724 3.523 19.5722C4.09307 20.4042 4.76474 21.152 5.538 21.8154C6.31126 22.4799 7.15867 23.0249 8.08022 23.4506" 
fill="currentColor"/>
</svg>
