<svg width="26" height="25" viewBox="0 0 26 25" fill="none" xmlns="http://www.w3.org/2000/svg">
  <path
    d="M18.4167 16.4788C17.5091 16.4788 16.7374 16.1611 16.1018 15.5256C15.4653 14.8902 15.147 14.1183 15.147 13.21C15.147 12.3016 15.4653 11.5297 16.1018 10.8943C16.7384 10.2588 17.51 9.94159 18.4167 9.94253C19.3233 9.94348 20.0954 10.2612 20.7329 10.8957C21.3685 11.5321 21.6863 12.304 21.6863 13.2114C21.6863 14.1188 21.3681 14.8907 20.7315 15.5271C20.0949 16.1635 19.3233 16.4798 18.4167 16.4788ZM10.897 24.8407V21.7149C10.897 21.3901 10.9744 21.0847 11.1293 20.7986C11.2842 20.5134 11.5014 20.2859 11.781 20.1159C12.4364 19.7222 13.1278 19.3964 13.855 19.1387C14.5822 18.879 15.3255 18.6873 16.0848 18.5636L18.4167 21.5988L20.7216 18.5622C21.4885 18.6859 22.2346 18.8771 22.9599 19.1358C23.6871 19.3955 24.3823 19.7217 25.0453 20.1145C25.3248 20.2835 25.5387 20.5092 25.687 20.7915C25.8353 21.0738 25.9184 21.3722 25.9363 21.6866V24.8407H10.897ZM6.97425 21.7149V22.661H2.30208C1.65986 22.661 1.11539 22.4368 0.668667 21.9883C0.222889 21.5417 0 21.004 0 20.3751V2.28735C0 1.6585 0.224305 1.12031 0.672917 0.672749C1.12153 0.225194 1.65986 0.00094421 2.28792 0H20.3788C21.0078 0 21.5461 0.22425 21.9938 0.672749C22.4414 1.12125 22.6657 1.65945 22.6667 2.28735V7.5178C22.0622 7.03248 21.4039 6.6614 20.6918 6.40458C19.9797 6.14775 19.2213 6.01934 18.4167 6.01934C18.2901 6.01934 18.1721 6.02406 18.0625 6.0335C17.9529 6.04294 17.8349 6.05616 17.7083 6.07316V5.28427H4.95833V6.70059H15.4743C14.6025 7.07827 13.846 7.60278 13.2048 8.27411C12.5635 8.94639 12.0676 9.72914 11.7173 10.6224H4.95833V12.0387H11.3617C11.2701 12.625 11.2455 13.2133 11.288 13.8034C11.3305 14.3935 11.4462 14.9766 11.6351 15.5526C11.4726 15.6253 11.314 15.6932 11.1591 15.7565C11.0042 15.8198 10.854 15.8877 10.7086 15.9605H4.95833V17.3768H8.91933C8.30072 17.9197 7.82189 18.575 7.48283 19.3426C7.14378 20.1103 6.97425 20.9006 6.97425 21.7135"
    fill="currentColor"
  />
</svg>
