<svg width="20" height="25" viewBox="0 0 20 25" fill="none" xmlns="http://www.w3.org/2000/svg">
<path d="M3.597 24.7439C2.60242 24.7439 1.7545 24.3929 1.05325 23.6909C0.351083 22.9907 0 22.1435 0 21.1491V4.12398C0 2.9711 0.399208 1.99555 1.19762 1.19733C1.99604 0.399109 2.97183 0 4.125 0H19.25V18.9291C18.6423 18.9291 18.1198 19.1467 17.6825 19.582C17.2453 20.0173 17.0275 20.5397 17.0294 21.1491C17.0312 21.7586 17.2494 22.2805 17.6839 22.7149C18.1184 23.1493 18.6404 23.3674 19.25 23.3692V24.7439H3.597ZM1.375 18.3696C1.6775 18.1038 2.01438 17.9013 2.38563 17.762C2.75504 17.6227 3.15837 17.553 3.59562 17.553H4.65438V1.37466H4.125C3.37608 1.37466 2.73029 1.64547 2.18763 2.18708C1.64588 2.72961 1.375 3.37525 1.375 4.12398V18.3696ZM6.02938 17.553H17.875V1.37466H6.02938V17.553ZM3.597 23.3692H16.4711C16.2099 23.0668 16.0082 22.7314 15.8661 22.3629C15.724 21.9964 15.653 21.5913 15.653 21.1478C15.653 20.7289 15.7227 20.3303 15.862 19.9518C16.0013 19.5733 16.2044 19.2319 16.4711 18.9277H3.597C2.96542 18.9277 2.43742 19.1458 2.013 19.582C1.58858 20.0182 1.37592 20.5406 1.375 21.1491C1.375 21.7796 1.58767 22.307 2.013 22.7314C2.43833 23.1557 2.96633 23.3683 3.597 23.3692Z" 
fill="currentColor"/>
</svg>
