<svg width="24" height="25" viewBox="0 0 24 25" fill="none" xmlns="http://www.w3.org/2000/svg">
<path d="M11.696 17.1353L15.6453 13.0625C15.9724 12.7261 16.1831 12.3209 16.2773 11.847C16.3707 11.374 16.3236 10.918 16.136 10.4789C15.9476 10.0398 15.6653 9.68229 15.2893 9.40637C14.9133 9.13046 14.4902 8.99204 14.02 8.99112C13.5498 8.99021 13.1267 9.13688 12.7507 9.43113C12.3747 9.72538 12.0236 10.0402 11.6973 10.3757C11.3658 10.0393 11.0173 9.72446 10.652 9.43113C10.2876 9.13779 9.86978 8.99112 9.39867 8.99112C8.92933 8.99112 8.50533 9.12358 8.12667 9.3885C7.748 9.65433 7.46489 10.0063 7.27733 10.4445C7.08889 10.901 7.03867 11.3662 7.12667 11.8401C7.21467 12.314 7.42178 12.7215 7.748 13.0625L11.696 17.1353ZM9.17067 24.75L8.688 20.7735C8.26222 20.6406 7.80222 20.4325 7.308 20.1493C6.81289 19.8651 6.392 19.5607 6.04533 19.2362L2.488 20.7969L0.00133355 16.3281L3.076 13.937C3.036 13.6895 3.00356 13.4338 2.97867 13.1698C2.952 12.9058 2.93867 12.6495 2.93867 12.4011C2.93867 12.1701 2.952 11.9272 2.97867 11.6724C3.00356 11.4175 3.036 11.1306 3.076 10.8116L0 8.42325L2.48667 4.00675L6.01733 5.54125C6.41556 5.19933 6.84667 4.89087 7.31067 4.61587C7.77289 4.34087 8.22311 4.12821 8.66133 3.97788L9.168 0H14.144L14.6253 4.004C15.1364 4.18917 15.588 4.40137 15.98 4.64062C16.372 4.87988 16.776 5.17962 17.192 5.53987L20.8253 4.00675L23.312 8.42188L20.136 10.8914C20.2089 11.1755 20.2498 11.4363 20.2587 11.6737C20.2676 11.9112 20.272 12.1449 20.272 12.375C20.272 12.5886 20.2631 12.8136 20.2453 13.0501C20.2284 13.2875 20.1893 13.5745 20.128 13.9109L23.2533 16.3281L20.7667 20.7969L17.192 19.2101C16.7769 19.5704 16.3591 19.8788 15.9387 20.1355C15.5182 20.3922 15.0804 20.5961 14.6253 20.7474L14.144 24.75H9.17067ZM10.3227 23.375H12.9307L13.4227 19.6515C14.0947 19.4682 14.6991 19.2165 15.236 18.8966C15.7747 18.5767 16.3222 18.1385 16.8787 17.5821L20.2053 19.0438L21.5307 16.7062L18.612 14.4457C18.7231 14.0543 18.7969 13.6941 18.8333 13.365C18.8689 13.0368 18.8867 12.7068 18.8867 12.375C18.8867 12.0267 18.8689 11.6967 18.8333 11.385C18.7978 11.0733 18.724 10.731 18.612 10.3579L21.5813 8.04375L20.256 5.70625L16.8533 7.1775C16.4498 6.72008 15.9196 6.29154 15.2627 5.89187C14.6049 5.49312 13.9827 5.22867 13.396 5.0985L12.9893 1.375H10.3307L9.91467 5.07238C9.24267 5.21996 8.62489 5.45829 8.06133 5.78737C7.49867 6.11554 6.93867 6.567 6.38133 7.14175L3.056 5.70625L1.73067 8.04375L4.62267 10.2713C4.51156 10.5793 4.43378 10.9138 4.38933 11.275C4.34489 11.6362 4.32267 12.012 4.32267 12.4025C4.32267 12.7508 4.34489 13.0969 4.38933 13.4406C4.43378 13.7844 4.50311 14.119 4.59733 14.4444L1.73067 16.7062L3.056 19.0438L6.356 17.6C6.87956 18.1445 7.42267 18.5813 7.98533 18.9104C8.54889 19.2395 9.18356 19.4957 9.88933 19.679L10.3227 23.375Z" 
fill="currentColor"/>
</svg>
