<svg width="22" height="22" viewBox="0 0 22 22" fill="none" xmlns="http://www.w3.org/2000/svg">
<path d="M6.17333 21.3333C4.45956 21.3333 3.00222 20.7329 1.80133 19.532C0.600444 18.3311 0 16.8707 0 15.1507C0 14.4324 0.123111 13.7329 0.369333 13.052C0.615556 12.3711 0.971111 11.7511 1.436 11.192L6.11867 5.56933L4.13333 1.54933C3.94578 1.19022 3.95378 0.842222 4.15733 0.505334C4.36178 0.168445 4.66844 0 5.07733 0H16.256C16.6649 0 16.9716 0.168445 17.176 0.505334C17.3804 0.842222 17.3884 1.19022 17.2 1.54933L15.2147 5.56933L19.8973 11.192C20.3622 11.7511 20.7178 12.3711 20.964 13.052C21.2102 13.732 21.3333 14.4316 21.3333 15.1507C21.3333 16.8707 20.7333 18.3311 19.5333 19.532C18.3333 20.7329 16.8756 21.3333 15.16 21.3333H6.17333ZM10.6627 15.3067C10.0689 15.3067 9.56222 15.0956 9.14267 14.6733C8.72311 14.2511 8.51333 13.7431 8.51333 13.1493C8.51333 12.5556 8.72444 12.0489 9.14667 11.6293C9.56889 11.2098 10.0773 11 10.672 11C11.2667 11 11.7733 11.2116 12.192 11.6347C12.6107 12.0578 12.8204 12.5658 12.8213 13.1587C12.8222 13.7516 12.6107 14.2582 12.1867 14.6787C11.7627 15.0991 11.2547 15.3089 10.6627 15.308M7.34667 5H14.0133L15.8333 1.33333H5.5L7.34667 5ZM6.17333 20H15.16C16.512 20 17.6569 19.5271 18.5947 18.5813C19.5316 17.6338 20 16.4911 20 15.1533C20 14.5898 19.9053 14.0409 19.716 13.5067C19.5267 12.9724 19.2489 12.488 18.8827 12.0533L14.1093 6.33333H7.256L2.47733 12.0467C2.10933 12.4804 1.82667 12.9671 1.62933 13.5067C1.432 14.0453 1.33333 14.596 1.33333 15.1587C1.33333 16.4938 1.80667 17.6347 2.75333 18.5813C3.69911 19.5271 4.83911 20 6.17333 20Z" 
fill="currentColor"/>
</svg>
