<svg width="23" height="22" viewBox="0 0 23 22" fill="none" xmlns="http://www.w3.org/2000/svg">
<path d="M1.33333 17.3333V20V1.33333V17.3333ZM2.15467 21.3333C1.55733 21.3333 1.04889 21.1236 0.629333 20.704C0.209778 20.2844 0 19.7764 0 19.18V2.15333C0 1.55778 0.209778 1.04978 0.629333 0.629333C1.04889 0.209778 1.55733 0 2.15467 0H19.18C19.7756 0 20.2836 0.209778 20.704 0.629333C21.1236 1.04889 21.3333 1.55733 21.3333 2.15467V6.07733H20V2.15467C20 1.91467 19.9231 1.71778 19.7693 1.564C19.6156 1.41022 19.4191 1.33333 19.18 1.33333H2.15333C1.91422 1.33333 1.71778 1.41022 1.564 1.564C1.41022 1.71778 1.33333 1.91467 1.33333 2.15467V19.18C1.33333 19.4191 1.41022 19.6156 1.564 19.7693C1.71778 19.9231 1.91467 20 2.15467 20H19.18C19.4191 20 19.6156 19.9231 19.7693 19.7693C19.9231 19.6156 20 19.4191 20 19.18V15.256H21.3333V19.18C21.3333 19.7756 21.1236 20.2836 20.704 20.704C20.2844 21.1236 19.7764 21.3333 19.18 21.3333H2.15467ZM12.8213 16C12.224 16 11.7156 15.7902 11.296 15.3707C10.8764 14.9511 10.6667 14.4431 10.6667 13.8467V7.48667C10.6667 6.89111 10.8764 6.38311 11.296 5.96267C11.7156 5.54311 12.224 5.33333 12.8213 5.33333H20.5133C21.1089 5.33333 21.6169 5.54311 22.0373 5.96267C22.4569 6.38222 22.6667 6.89067 22.6667 7.488V13.8467C22.6667 14.4422 22.4569 14.9502 22.0373 15.3707C21.6178 15.7902 21.1098 16 20.5133 16H12.8213ZM20.5133 14.6667C20.7524 14.6667 20.9489 14.5898 21.1027 14.436C21.2564 14.2822 21.3333 14.0858 21.3333 13.8467V7.48667C21.3333 7.24756 21.2564 7.05111 21.1027 6.89733C20.9489 6.74356 20.7524 6.66667 20.5133 6.66667H12.82C12.5809 6.66667 12.3844 6.74356 12.2307 6.89733C12.0769 7.05111 12 7.248 12 7.488V13.8467C12 14.0858 12.0769 14.2822 12.2307 14.436C12.3844 14.5898 12.5813 14.6667 12.8213 14.6667H20.5133ZM16 12.6667C16.5556 12.6667 17.028 12.4724 17.4173 12.084C17.8067 11.6956 18.0009 11.2231 18 10.6667C17.9991 10.1102 17.8049 9.63822 17.4173 9.25067C17.0298 8.86311 16.5573 8.66844 16 8.66667C15.4427 8.66489 14.9707 8.85956 14.584 9.25067C14.1973 9.64178 14.0027 10.1138 14 10.6667C13.9973 11.2196 14.192 11.692 14.584 12.084C14.976 12.476 15.448 12.6702 16 12.6667Z" 
 fill="currentColor"/>
</svg>
