<svg width="142" height="142" viewBox="0 0 142 142" fill="none" xmlns="http://www.w3.org/2000/svg">
<path d="M70.9997 11.834C48.1022 11.834 29.583 30.3532 29.583 53.2507C29.583 84.3132 70.9997 130.167 70.9997 130.167C70.9997 130.167 112.416 84.3132 112.416 53.2507C112.416 30.3532 93.8972 11.834 70.9997 11.834ZM70.9997 68.0423C67.0767 68.0423 63.3144 66.4839 60.5404 63.7099C57.7664 60.936 56.208 57.1736 56.208 53.2507C56.208 49.3277 57.7664 45.5653 60.5404 42.7914C63.3144 40.0174 67.0767 38.459 70.9997 38.459C74.9227 38.459 78.685 40.0174 81.459 42.7914C84.2329 45.5653 85.7913 49.3277 85.7913 53.2507C85.7913 57.1736 84.2329 60.936 81.459 63.7099C78.685 66.4839 74.9227 68.0423 70.9997 68.0423Z" fill="#045459"/>
</svg>
